<svg width="31" height="28" viewBox="0 0 31 28" fill="none" xmlns="http://www.w3.org/2000/svg">
<path fill-rule="evenodd" clip-rule="evenodd" d="M25.6479 1.75534C25.7981 2.86378 25.015 3.88322 23.8989 4.03233C23.1574 4.13138 21.9694 4.84615 20.2917 6.63085C18.8523 8.16193 17.3203 10.1806 15.6835 12.4487C19.6967 14.6679 23.921 16.6756 27.1529 18.2116C28.1645 18.6923 29.0788 19.1269 29.859 19.5073C30.8699 20.0001 31.2872 21.2136 30.7909 22.2175C30.2946 23.2215 29.0727 23.6358 28.0618 23.143C27.3345 22.7884 26.4616 22.3737 25.482 21.9083C22.1531 20.3266 17.5909 18.1591 13.3137 15.7727C12.0614 17.5334 10.7697 19.3307 9.46889 21.0055C7.52377 23.5098 5.45411 25.8798 3.30176 27.5651C2.41739 28.2575 1.13521 28.1069 0.437938 27.2287C-0.259338 26.3504 -0.107668 25.077 0.776702 24.3846C2.52597 23.0149 4.35 20.9647 6.23966 18.5318C7.43423 16.9938 8.61338 15.3588 9.79011 13.7062C7.57179 12.3303 5.50971 10.8833 3.87437 9.41915C2.81461 8.47033 1.87569 7.46307 1.19012 6.40985C0.508394 5.36252 8.45626e-05 4.15002 8.45626e-05 2.83284C8.45626e-05 1.71441 0.913042 0.807753 2.03923 0.807753C3.16542 0.807753 4.07838 1.71441 4.07838 2.83284C4.07838 3.10571 4.18783 3.55465 4.61512 4.21109C5.03856 4.86163 5.69991 5.60048 6.60519 6.41099C8.05164 7.70605 9.97165 9.0532 12.1494 10.3938C13.8742 7.99421 15.6134 5.6723 17.3106 3.86693C19.028 2.04007 21.0742 0.323026 23.3551 0.0183144C24.4713 -0.130792 25.4978 0.646902 25.6479 1.75534Z" fill="#CCFF02"/>
</svg>
